<svg xmlns="http://www.w3.org/2000/svg" viewBox="0 0 100 100" fill="none">
  <circle cx="50" cy="50" r="45" fill="#292F36"/>
  <path d="M30 50 L50 30 L70 50 L50 70 Z" fill="#FF6B6B"/>
  <path d="M50 30 L60 40 L50 50 L40 40 Z" fill="#4ECDC4"/>
  <path d="M60 40 L70 50 L60 60 L50 50 Z" fill="#FFD166"/>
  <path d="M50 50 L60 60 L50 70 L40 60 Z" fill="#4ECDC4"/>
  <path d="M40 40 L50 50 L40 60 L30 50 Z" fill="#FFD166"/>
  <circle cx="50" cy="50" r="10" fill="#F7FFF7"/>
  <circle cx="50" cy="50" r="5" fill="#292F36"/>
  <path d="M67 30 L72 25 M72 30 L67 25 M28 70 L33 65 M33 70 L28 65" stroke="#FF6B6B" stroke-width="3" stroke-linecap="round"/>
  <path d="M75 55 L80 55 M77.5 52.5 L77.5 57.5 M20 45 L25 45" stroke="#FFD166" stroke-width="3" stroke-linecap="round"/>
</svg> 