<svg width="820" height="820" viewBox="0 0 820 820" fill="none" xmlns="http://www.w3.org/2000/svg">
<rect width="820" height="820" fill="black"/>
<path d="M240.078 593.859C219.408 593.859 202.236 591.988 188.564 588.244C175.055 584.501 164.15 579.862 155.85 574.328C147.712 568.632 141.445 563.016 137.051 557.482C135.586 555.367 134.284 553.332 133.145 551.379C132.005 549.426 131.191 547.229 130.703 544.787C130.052 541.532 129.401 537.3 128.75 532.092C128.099 526.721 128.018 520.536 128.506 513.537C128.669 510.607 129.238 508.573 130.215 507.434C131.354 506.132 133.226 505.155 135.83 504.504C140.55 503.365 146.654 502.388 154.141 501.574C161.79 500.598 167.243 500.109 170.498 500.109C173.916 500.109 176.683 500.76 178.799 502.062C180.915 503.365 183.438 505.562 186.367 508.654C189.622 512.072 195.238 516.467 203.213 521.838C211.188 527.046 223.477 529.65 240.078 529.65C256.029 529.65 268.073 526.314 276.211 519.641C284.349 512.967 288.418 503.69 288.418 491.809C288.418 485.461 286.465 479.52 282.559 473.986C278.815 468.29 271.898 462.674 261.807 457.141C251.715 451.444 237.311 445.503 218.594 439.318C187.669 428.902 165.371 415.962 151.699 400.5C138.027 385.038 131.191 363.553 131.191 336.047C131.191 313.26 136.725 294.217 147.793 278.918C158.861 263.618 174.16 252.062 193.691 244.25C213.223 236.438 235.765 232.531 261.318 232.531C281.012 232.531 297.288 234.891 310.146 239.611C323.167 244.169 333.258 249.377 340.42 255.236C347.581 260.933 352.22 265.572 354.336 269.152C355.638 271.268 356.452 272.896 356.777 274.035C357.266 275.012 357.591 276.395 357.754 278.186C358.242 283.231 358.405 288.846 358.242 295.031C358.079 301.216 357.51 308.215 356.533 316.027C356.045 318.632 355.15 320.422 353.848 321.398C352.708 322.212 350.918 322.619 348.477 322.619C332.689 322.945 320.482 322.131 311.855 320.178C308.438 319.364 306.159 318.55 305.02 317.736C303.88 316.923 302.415 315.62 300.625 313.83C298.021 310.738 293.87 307.157 288.174 303.088C282.64 298.856 273.688 296.74 261.318 296.74C244.229 296.74 232.103 300.646 224.941 308.459C217.78 316.109 214.199 324.735 214.199 334.338C214.199 345.731 219.489 354.683 230.068 361.193C240.648 367.541 257.331 374.784 280.117 382.922C299.16 389.595 315.518 396.838 329.189 404.65C342.861 412.463 353.278 422.473 360.439 434.68C367.764 446.887 371.426 463 371.426 483.02C371.426 507.922 365.648 528.592 354.092 545.031C342.699 561.47 327.074 573.758 307.217 581.896C287.523 589.872 265.143 593.859 240.078 593.859ZM579.434 528.186C591.315 528.186 600.592 526.965 607.266 524.523C614.102 522.082 619.391 519.071 623.135 515.49C626.878 511.91 630.133 508.329 632.9 504.748C635.505 501.493 637.62 499.051 639.248 497.424C641.038 495.796 643.48 494.657 646.572 494.006C649.176 493.192 653.327 492.704 659.023 492.541C664.883 492.215 670.661 492.053 676.357 492.053C682.217 492.053 686.286 492.215 688.564 492.541C691.982 492.704 694.342 493.355 695.645 494.494C696.947 495.633 697.76 498.075 698.086 501.818C698.574 507.027 698.818 513.212 698.818 520.373C698.981 527.535 698.9 533.719 698.574 538.928C698.411 540.555 698.086 541.939 697.598 543.078C697.272 544.217 696.458 545.926 695.156 548.205C693.529 550.809 690.355 554.634 685.635 559.68C680.915 564.562 673.997 569.689 664.883 575.061C655.768 580.269 643.968 584.745 629.482 588.488C615.16 592.232 597.5 594.104 576.504 594.104C554.043 594.104 533.047 591.255 513.516 585.559C493.984 579.699 476.813 569.934 462.002 556.262C447.354 542.59 435.879 524.117 427.578 500.842C419.44 477.567 415.371 448.514 415.371 413.684C415.371 374.947 422.044 342.069 435.391 315.051C448.9 287.87 468.024 267.199 492.764 253.039C517.503 238.879 546.8 231.799 580.654 231.799C604.417 231.799 623.46 234.24 637.783 239.123C652.269 244.006 663.255 249.784 670.742 256.457C678.229 262.967 683.519 268.664 686.611 273.547C687.751 275.337 688.564 276.965 689.053 278.43C689.541 279.732 689.867 281.848 690.029 284.777C690.518 288.684 690.599 294.38 690.273 301.867C690.111 309.354 689.541 315.946 688.564 321.643C687.913 325.223 686.855 327.583 685.391 328.723C684.74 329.374 683.6 329.943 681.973 330.432C680.345 330.92 677.904 331.164 674.648 331.164C669.44 331.164 663.581 331.001 657.07 330.676C650.56 330.188 645.677 329.699 642.422 329.211C638.516 328.56 635.667 327.665 633.877 326.525C632.087 325.223 630.296 323.27 628.506 320.666C625.576 316.434 620.531 311.551 613.369 306.018C606.208 300.484 594.408 297.717 577.969 297.717C554.857 297.717 535.814 306.669 520.84 324.572C505.866 342.313 498.379 371.122 498.379 410.998C498.379 450.712 506.191 480.171 521.816 499.377C537.604 518.583 556.81 528.186 579.434 528.186Z" fill="url(#paint0_linear_184_5)"/>
<defs>
<linearGradient id="paint0_linear_184_5" x1="410" y1="66" x2="410" y2="906" gradientUnits="userSpaceOnUse">
<stop stop-color="white"/>
<stop offset="1" stop-color="#999999"/>
</linearGradient>
</defs>
</svg>
